# xmcd
#
# Track frame offsets:
#	150
#	20883
#	34188
#	48548
#	59770
#	74798
#	87568
#	101883
#	121135
#	132558
#	147295
#	163280
#	177068
#	188390
#
# Disc length: 2699 seconds
#
# Revision: 0
# Processed by: cddbd v1.4PL0 Copyright (c) Steve Scherf et al.
# Submitted via: dBpowerAMP V4.0
#
DISCID=db0a890e
DTITLE=Jim Nabors - Inspirational Favorites
DYEAR=1900
DGENRE=Country
TTITLE0=How Great Thou Art
TTITLE1=Mansion Over The Hilltop
TTITLE2=Holy, Holy, Holy
TTITLE3=Amasing Grace
TTITLE4=God Be With You
TTITLE5=My Sweet Lord
TTITLE6=Take My Hand, Precious Lord
TTITLE7=Abide With Me
TTITLE8=Crying In The Chapel
TTITLE9=In The Sweet Bye And Bye
TTITLE10=In The Garden
TTITLE11=It Is No Secret (What God Can Do)
TTITLE12=Ave Maria
TTITLE13=Battle Hymn Of The Republic
EXTD=
EXTT0=
EXTT1=
EXTT2=
EXTT3=
EXTT4=
EXTT5=
EXTT6=
EXTT7=
EXTT8=
EXTT9=
EXTT10=
EXTT11=
EXTT12=
EXTT13=
PLAYORDER=
